<svg xmlns="http://www.w3.org/2000/svg" xmlns:xlink="http://www.w3.org/1999/xlink" viewBox="0,0,256,256" width="64px" height="64px" fill-rule="nonzero"><defs><linearGradient x1="32" y1="4.75" x2="32" y2="60.568" gradientUnits="userSpaceOnUse" id="color-1"><stop offset="0" stop-color="#00ff00"></stop><stop offset="1" stop-color="#82ff9d"></stop></linearGradient><linearGradient x1="32" y1="10.75" x2="32" y2="55.408" gradientUnits="userSpaceOnUse" id="color-2"><stop offset="0" stop-color="#6fff64"></stop><stop offset="1" stop-color="#adff94"></stop></linearGradient></defs><g fill="none" fill-rule="nonzero" stroke="none" stroke-width="1" stroke-linecap="butt" stroke-linejoin="miter" stroke-miterlimit="10" stroke-dasharray="" stroke-dashoffset="0" font-family="none" font-weight="none" font-size="none" text-anchor="none" style="mix-blend-mode: normal"><g transform="scale(4,4)"><path d="M32.51,58c-10.073,0 -19.149,-5.485 -23.687,-14.315c-1.847,-3.61 -2.823,-7.65 -2.823,-11.685c0,-4.035 0.976,-8.075 2.823,-11.684c4.538,-8.831 13.614,-14.316 23.687,-14.316c6.756,0 12.891,2.342 17.743,6.772l0.781,0.713l-8.756,8.58l-0.699,-0.655c-2.423,-2.27 -5.559,-3.469 -9.068,-3.469c-6.017,0 -11.373,3.868 -13.328,9.626c-0.496,1.457 -0.747,2.945 -0.747,4.425c0,1.477 0.251,2.964 0.747,4.42c1.952,5.75 7.308,9.613 13.328,9.613c3.048,0 5.845,-0.779 8.09,-2.253c2.058,-1.351 3.6,-3.412 4.352,-5.772h-13.953v-12h26.396l0.128,0.851c0.286,1.889 0.476,3.546 0.476,5.49c0,7.856 -2.818,14.727 -7.937,19.345c-4.565,4.13 -10.635,6.314 -17.553,6.314zM32.51,8c-9.32,0 -17.715,5.069 -21.907,13.229c-1.727,3.375 -2.603,6.999 -2.603,10.771c0,3.772 0.876,7.396 2.604,10.771c4.191,8.16 12.586,13.229 21.906,13.229c6.414,0 12.02,-2.005 16.212,-5.798c4.694,-4.235 7.278,-10.578 7.278,-17.861c0,-1.527 -0.127,-2.88 -0.329,-4.341h-22.671v8h14.456l-0.235,1.193c-0.666,3.377 -2.678,6.384 -5.522,8.251c-2.571,1.688 -5.748,2.581 -9.188,2.581c-6.876,0 -12.994,-4.408 -15.221,-10.97c-0.566,-1.663 -0.853,-3.367 -0.853,-5.063c0,-1.699 0.287,-3.404 0.853,-5.068c2.23,-6.568 8.347,-10.982 15.221,-10.982c3.689,0 7.027,1.164 9.714,3.376l5.883,-5.765c-4.345,-3.637 -9.714,-5.553 -15.598,-5.553z" fill="url(#color-1)"></path><path d="M32,53c-11.58,0 -21,-9.421 -21,-21c0,-11.579 9.42,-21 21,-21c3.924,0 7.75,1.089 11.067,3.149l-1.056,1.699c-2.999,-1.863 -6.461,-2.848 -10.011,-2.848c-10.477,0 -19,8.523 -19,19c0,10.477 8.523,19 19,19c10.141,0 18.452,-7.986 18.974,-18h-14.974v-2h17v1c0,11.579 -9.42,21 -21,21z" fill="url(#color-2)"></path></g></g></svg>